<?xml version="1.0" encoding="utf-8"?>
<svg width="454px" height="454px" viewBox="0 0 454 454" version="1.1" xmlns:xlink="http://www.w3.org/1999/xlink" xmlns="http://www.w3.org/2000/svg">
  <defs>
    <path d="M-9 -105L-9 -105L-9 349L-463 349L-463 -105L-9 -105Z" id="path_1" />
    <path d="M75 0L75 0L75 75L0 75L0 0L75 0Z" id="path_2" />
    <clipPath id="clip_1">
      <use xlink:href="#path_1" clip-rule="evenodd" fill-rule="evenodd" />
    </clipPath>
    <clipPath id="clip_2">
      <use xlink:href="#path_2" clip-rule="evenodd" fill-rule="evenodd" />
    </clipPath>
  </defs>
  <g id="magician-svgrepo-com (1)">
    <path d="M-9 -105L-9 -105L-9 349L-463 349L-463 -105L-9 -105Z" id="magician-svgrepo-com-(1)" fill="none" stroke="none" />
    <g id="SVGRepo_iconCarrier" transform="translate(32.513092 -0.0006494522)" clip-path="url(#clip_1)">
      <path d="M309.262 300.016C307.491 337.131 288.122 369.629 259.332 389.341C259.077 389.527 258.823 389.693 258.579 389.86C247.71 397.177 235.522 402.685 222.451 405.933C222.177 399.163 166.808 399.163 166.534 405.933C153.465 402.684 141.265 397.177 130.406 389.86C130.162 389.693 129.897 389.527 129.653 389.341C100.863 369.629 81.4923 337.131 79.7224 300.016C79.6444 298.186 79.5956 296.338 79.5956 294.479L79.5956 265.268C99.1416 256.102 110.039 190.284 110.039 190.284C166.309 193.239 222.686 193.239 278.947 190.284C278.947 190.284 289.835 256.102 309.391 265.268L309.391 294.479C309.389 296.338 309.34 298.186 309.262 300.016L309.262 300.016Z" id="Shape" fill="#FFD3AE" stroke="#000000" stroke-width="0" />
      <path d="M301.279 177.187C244.422 185.808 187.551 187.496 130.693 182.267C134.415 157.074 146.309 134.543 163.598 117.463C178.814 102.426 198.211 91.6165 219.887 86.916C212.005 85.2073 203.825 84.2993 195.43 84.2993C163.95 84.2993 135.433 96.9581 114.684 117.463C93.6023 138.29 80.5329 167.217 80.5329 199.197L80.5329 212.825L79.5939 212.825L79.5939 214.351C79.9069 214.373 80.2199 214.391 80.5329 214.414L80.5329 217.207L80.5329 231.343L80.5329 266.061L80.5329 295.273C80.5329 297.131 80.5817 298.98 80.6597 300.819C82.4305 337.925 101.8 370.423 130.59 390.144C130.835 390.321 131.099 390.496 131.344 390.663C149.647 402.98 171.697 410.18 195.43 410.18C203.825 410.18 212.003 409.262 219.885 407.552C205.484 404.429 192.085 398.623 180.257 390.664C180.012 390.497 179.748 390.322 179.503 390.145C150.713 370.424 131.343 337.926 129.573 300.82C129.495 298.981 129.446 297.132 129.446 295.274L129.446 266.062L129.446 231.344L129.446 231.344C129.446 223.577 135.783 217.307 143.548 217.397C172.824 217.738 240.647 218.242 278.944 216.231C289.099 215.703 299.243 215.077 309.388 214.353L309.388 212.827L309.603 212.769C306.092 200.91 303.324 189.044 301.279 177.187L301.279 177.187Z" id="Shape" fill="#DBA983" stroke="#000000" stroke-width="0" />
      <path d="M166.533 405.932C166.807 399.163 169.527 392.471 174.702 387.296C180.17 381.828 187.331 379.099 194.492 379.099C201.653 379.099 208.814 381.828 214.283 387.296C219.458 392.471 222.177 399.162 222.451 405.932C222.471 406.314 222.481 406.706 222.481 407.087C222.481 414.248 219.751 421.408 214.283 426.878L194.492 446.668L174.702 426.878C168.94 421.115 166.22 413.475 166.533 405.932L166.533 405.932Z" id="Shape" fill="#4D4D4D" stroke="#000000" stroke-width="0" />
      <path d="M79.712 300.016L79.7216 300.016C79.6438 298.187 79.595 296.338 79.595 294.479L79.595 230.539L79.5851 230.539C64.6076 234.972 53.6707 248.854 53.6707 265.259C53.6707 281.721 64.6662 295.623 79.712 300.016ZM335.303 265.259C335.303 248.854 324.366 234.972 309.388 230.539L309.388 294.479C309.388 296.338 309.34 298.187 309.262 300.016C324.308 295.614 335.303 281.722 335.303 265.259Z" id="Group" fill="#DBA983" fill-rule="evenodd" stroke="#000000" stroke-width="0" />
      <path d="M309.604 186.821L309.389 186.879L309.389 188.405C299.244 189.129 289.1 189.755 278.945 190.283C226.197 193.052 173.351 193.228 120.593 190.802C117.071 190.645 113.55 190.47 110.038 190.283C99.8829 189.755 89.7388 189.129 79.5938 188.405L79.5938 186.879L80.5914 186.879C84.1134 175.003 86.8915 163.117 88.9363 151.241C102.075 153.237 115.212 154.861 128.341 156.113C185.981 161.601 243.639 159.977 301.279 151.241C303.324 163.098 306.092 174.964 309.604 186.821L309.604 186.821Z" id="Shape" fill="#FFBB00" stroke="#000000" stroke-width="0" />
      <path d="M309.389 230.54L309.389 265.268C289.833 256.102 278.945 190.284 278.945 190.284C289.1 189.756 299.244 189.13 309.389 188.406L309.389 230.54L309.389 230.54Z" id="Shape" fill="#4D4D4D" stroke="#000000" stroke-width="0" />
      <path d="M301.279 151.241C243.639 159.977 185.981 161.601 128.341 156.113C115.213 154.861 102.075 153.236 88.9363 151.241C96.6552 106.378 93.8665 61.5248 80.5914 16.6612C94.2477 14.4311 107.915 12.5921 121.571 11.1636C184.259 4.57968 246.935 6.40898 309.623 16.6612C296.349 61.5248 293.561 106.379 301.279 151.241L301.279 151.241Z" id="Shape" fill="#666666" stroke="#000000" stroke-width="0" />
      <path d="M79.5947 265.268C99.1408 256.102 110.038 190.284 110.038 190.284C99.8837 189.756 89.7389 189.131 79.5947 188.405L79.5947 265.268ZM220.66 310.218C227.703 310.874 234.62 313.33 240.675 317.556C247.454 322.292 255.398 324.697 263.39 324.697C269.446 324.697 275.531 323.309 281.146 320.501L283.513 319.327L276.128 336.203C265.739 359.954 236.303 368.407 214.888 353.791L202.963 345.652C197.698 342.058 194.537 336.112 194.492 329.747C194.447 336.112 191.286 342.059 186.021 345.653L174.086 353.792C152.671 368.407 123.246 359.955 112.855 336.203L105.47 319.328L107.838 320.502C113.454 323.31 119.528 324.699 125.594 324.699C133.576 324.699 141.52 322.293 148.308 317.558C154.363 313.33 161.27 310.874 168.324 310.219C171.591 309.898 174.898 309.974 178.165 310.435C187.55 311.758 194.425 319.989 194.492 329.47C194.558 319.989 201.424 311.758 210.819 310.434C214.086 309.974 217.383 309.897 220.66 310.218Z" id="Group" fill="#4D4D4D" fill-rule="evenodd" stroke="#000000" stroke-width="0" />
      <path d="M128.341 156.113C126.658 168.165 124.144 179.875 120.593 190.802C117.071 190.645 113.55 190.47 110.038 190.283C99.8828 189.755 89.7388 189.129 79.5938 188.405L79.5938 186.879L80.5914 186.879C84.1134 175.003 86.8915 163.117 88.9363 151.241C102.075 153.237 115.213 154.861 128.341 156.113L128.341 156.113Z" id="Shape" fill="#D39D27" stroke="#000000" stroke-width="0" />
      <path d="M128.341 156.113C115.213 154.861 102.075 153.236 88.9363 151.241C96.6552 106.378 93.8665 61.5247 80.5914 16.6612C94.2477 14.4311 107.915 12.5921 121.571 11.1636C126.414 36.9112 136.206 100.147 128.341 156.113L128.341 156.113Z" id="Shape" fill="#4D4D4D" stroke="#000000" stroke-width="0" />
      <path d="M380.767 174.322C384.795 173.854 388.435 176.734 388.905 180.76C389.374 184.784 386.492 188.429 382.463 188.898C360.592 191.449 338.666 193.543 316.705 195.199L316.705 225.438C332.2 232.328 342.617 247.976 342.617 265.246C342.617 282.712 331.99 298.491 316.221 305.27C313.015 341.447 293.838 374.535 263.539 395.315C263.304 395.484 263.07 395.643 262.84 395.798L262.683 395.903C252.368 402.841 241.233 408.093 229.483 411.588C228.525 419.072 225.186 426.306 219.451 432.041L199.663 451.829C198.231 453.262 196.353 453.979 194.476 453.979C192.599 453.979 190.721 453.262 189.289 451.829L169.501 432.041C163.907 426.447 160.43 419.305 159.451 411.583C147.696 408.086 136.57 402.839 126.296 395.921L126.12 395.803C125.872 395.64 125.623 395.47 125.379 395.291C95.1026 374.509 75.9371 341.435 72.7318 305.271C56.9604 298.494 46.33 282.713 46.33 265.245C46.33 247.973 56.7485 232.323 72.2476 225.433L72.2476 195.197C50.2864 193.54 28.3588 191.447 6.48715 188.896C2.46252 188.427 -0.418299 184.783 0.0498668 180.759C0.520695 176.734 4.16228 173.854 8.1878 174.322C30.3193 176.903 52.5075 179.014 74.7294 180.671C89.8402 126.915 89.4527 72.4582 73.551 18.7379C72.9534 16.7181 73.2522 14.5386 74.3721 12.7555C75.492 10.9706 77.3247 9.75412 79.4031 9.41452C156.172 -3.13817 234.023 -3.13817 310.792 9.41452C312.871 9.75501 314.703 10.9715 315.823 12.7555C316.944 14.5395 317.242 16.7181 316.644 18.7379C300.752 72.4272 300.355 126.853 315.439 180.579C337.257 178.936 359.039 176.857 380.767 174.322ZM292.896 145.037C286.945 104.243 289.407 63.2474 300.306 22.618C230.446 12.0267 159.753 12.0267 89.8925 22.6172C100.792 63.2474 103.254 104.242 97.3025 145.038C162.238 154.19 227.963 154.189 292.896 145.037ZM195.095 166.579C161.608 166.579 128.121 164.221 94.8375 159.511C93.3913 166.925 91.665 174.33 89.661 181.725C159.842 186.301 230.337 186.272 300.516 181.642C298.521 174.275 296.802 166.897 295.361 159.51C262.076 164.221 228.586 166.579 195.095 166.579ZM95.0636 222.385C97.8841 212.796 99.9749 203.468 101.266 197.133C96.4849 196.858 91.7039 196.561 86.9239 196.243L86.9239 244.55C89.4199 239.31 92.1863 232.162 95.0636 222.385ZM293.895 222.386C296.772 232.163 299.538 239.309 302.034 244.55L302.034 244.552L302.035 244.552L302.034 244.55L302.034 196.245C297.254 196.562 292.474 196.859 287.692 197.134C288.984 203.467 291.073 212.797 293.895 222.386ZM254.987 383.396C255.048 383.352 255.109 383.309 255.172 383.265C284.516 363.173 302.035 329.976 302.034 294.46L302.034 269.263C293.608 262.688 286.293 248.583 279.778 226.392C276.471 215.126 274.159 204.431 272.877 197.909C246.765 199.17 220.622 199.81 194.479 199.81C168.335 199.81 142.192 199.169 116.081 197.909C114.798 204.431 112.487 215.127 109.179 226.393C102.664 248.583 95.35 262.689 86.9239 269.263L86.9239 294.46C86.9239 329.974 104.443 363.172 133.788 383.264C133.889 383.332 133.986 383.402 134.082 383.475L134.521 383.768C142.682 389.264 151.47 393.567 160.727 396.612C162.4 391.19 165.376 386.22 169.504 382.092C176.175 375.421 185.045 371.746 194.48 371.746C203.915 371.746 212.784 375.421 219.456 382.092C223.658 386.293 226.57 391.301 228.208 396.62C237.468 393.574 246.27 389.265 254.469 383.749L254.651 383.626C254.761 383.553 254.874 383.479 254.987 383.396ZM277.856 313.939L280.222 312.756C282.984 311.374 286.318 311.873 288.558 313.999C290.798 316.127 291.466 319.429 290.227 322.259L282.843 339.135C277.011 352.465 265.647 362.413 251.663 366.43C247.219 367.707 242.681 368.335 238.172 368.335C228.493 368.335 218.949 365.441 210.751 359.845L198.823 351.704C197.229 350.617 195.785 349.366 194.486 347.994C193.187 349.365 191.743 350.616 190.149 351.704L178.221 359.845C170.023 365.44 160.478 368.335 150.8 368.335C146.291 368.335 141.753 367.707 137.309 366.43C123.325 362.413 111.959 352.465 106.129 339.135L98.7452 322.259C97.5074 319.429 98.1742 316.127 100.414 313.999C102.655 311.872 105.986 311.374 108.749 312.756L111.114 313.939C121.731 319.246 134.371 318.326 144.105 311.534C149.267 307.932 154.991 305.394 160.982 303.982L160.982 260.55C160.982 251.247 153.413 243.677 144.109 243.677C134.806 243.677 127.236 251.246 127.236 260.55C127.236 264.601 123.952 267.886 119.9 267.886C115.848 267.886 112.563 264.602 112.563 260.55C112.563 243.157 126.715 229.005 144.109 229.005C161.504 229.005 175.655 243.155 175.655 260.55L175.655 302.806C176.832 302.887 178.009 302.997 179.186 303.164C185.195 304.014 190.515 306.935 194.486 311.149C198.457 306.935 203.778 304.014 209.787 303.164C210.962 302.997 212.139 302.887 213.315 302.806L213.315 260.55C213.315 243.157 227.465 229.005 244.86 229.005C262.254 229.005 276.406 243.155 276.406 260.55C276.406 264.601 273.122 267.886 269.07 267.886C265.019 267.886 261.733 264.602 261.733 260.55C261.733 251.247 254.164 243.677 244.86 243.677C235.556 243.677 227.987 251.246 227.987 260.55L227.987 303.982C233.979 305.394 239.703 307.932 244.865 311.534C254.598 318.325 267.24 319.247 277.856 313.939ZM72.2511 242.431C65.3493 247.8 61.0063 256.178 61.0063 265.247C61.0063 274.325 65.3475 282.698 72.2511 288.065L72.2511 242.431ZM316.708 288.061C323.608 282.693 327.947 274.322 327.947 265.247C327.947 256.18 323.607 247.804 316.708 242.435L316.708 288.061ZM150.959 280.143L150.959 266.05C150.959 261.997 147.674 258.713 143.622 258.713C139.57 258.713 136.285 261.998 136.285 266.05L136.285 280.143C136.285 284.196 139.57 287.48 143.622 287.48C147.674 287.48 150.959 284.196 150.959 280.143ZM238.02 280.143L238.02 266.05C238.02 261.997 241.304 258.713 245.356 258.713C249.408 258.713 252.693 261.997 252.693 266.05L252.693 280.143C252.693 284.195 249.409 287.48 245.356 287.48C241.304 287.48 238.02 284.196 238.02 280.143ZM169.947 347.726L181.876 339.585C185.178 337.332 187.148 333.6 187.149 329.603C187.149 323.622 182.84 318.501 177.128 317.693C168.436 316.463 159.693 318.55 152.5 323.569C142.535 330.521 130.471 333.24 118.824 331.546L119.572 333.255C123.647 342.569 131.588 349.522 141.359 352.328C151.128 355.135 161.55 353.458 169.947 347.726ZM247.609 352.328C257.381 349.521 265.322 342.569 269.397 333.255L270.144 331.548C258.495 333.242 246.434 330.523 236.468 323.571C230.623 319.492 223.752 317.35 216.72 317.35C215.099 317.35 213.469 317.463 211.84 317.694C206.128 318.501 201.821 323.622 201.821 329.604C201.821 333.6 203.791 337.332 207.092 339.585L219.02 347.726C227.417 353.458 237.838 355.135 247.609 352.328ZM194.48 436.268L209.08 421.668C217.131 413.617 217.131 400.519 209.08 392.467C205.179 388.569 199.995 386.42 194.48 386.42C188.965 386.42 183.78 388.567 179.88 392.467C171.829 400.518 171.829 413.617 179.88 421.668L194.48 436.268Z" id="Group" fill="#333333" fill-rule="evenodd" stroke="#000000" stroke-width="0" />
    </g>
    <g id="btc-alt-svgrepo-com" clip-path="url(#clip_1)">
      <path d="M75 0L75 0L75 75L0 75L0 0L75 0Z" id="btc-alt-svgrepo-com" fill="none" stroke="none" transform="translate(189 52)" />
      <path d="M60.5033 37.3139C58.0896 35.4961 54.6513 34.769 54.6513 34.769C54.6513 34.769 57.5609 33.0821 58.7499 31.3968C59.9402 29.7109 60.535 27.0989 60.6345 25.7436C60.7334 24.3876 60.9651 18.7023 56.5349 15.4299C53.1082 12.8979 49.1812 11.8928 43.9078 11.5658L43.9078 0.0919442L36.8335 0.0919442L36.8335 11.4302C35.255 11.4302 33.4104 11.4302 31.4451 11.4302L31.4451 0.0919442L24.3714 0.0919442L24.3714 11.4302C17.1499 11.4302 10.4541 11.4302 10.4541 11.4302L10.4541 18.7767C10.4541 18.7767 13.4292 18.7767 14.5448 18.7767C15.66 18.7767 17.6435 18.9007 18.4863 19.844C19.3295 20.7856 19.4782 21.2819 19.4782 23.1156C19.4782 24.95 19.4786 51.6944 19.4786 52.3888C19.4786 53.0828 19.3463 53.9418 18.7508 54.5042C18.1563 55.0666 17.5615 55.1979 16.1395 55.1979C14.7177 55.1979 11.9086 55.1979 11.9086 55.1979L10.4541 63.6946C10.4541 63.6946 17.3704 63.6946 24.3714 63.6946L24.3714 75.0008L31.4454 75.0008L31.4454 63.6946C33.619 63.6946 35.5116 63.6946 36.8338 63.6946L36.8338 75.0008L43.9081 75.0008L43.9081 63.5081C45.7369 63.4013 47.442 63.2628 48.4366 63.1325C50.4535 62.8687 55.015 62.3397 59.2802 59.3642C63.5441 56.3885 64.502 51.7271 64.6015 47.0334C64.702 42.3393 62.9146 39.1321 60.5033 37.3139L60.5033 37.3139ZM31.4451 19.4304C31.4451 19.4304 33.6927 19.2323 35.9077 19.2647C38.1233 19.2974 40.0728 19.3639 42.9827 20.2566C45.8913 21.1497 47.609 23.3316 47.6764 25.9102C47.7422 28.4889 46.6171 30.2072 44.6346 31.2983C42.6514 32.3891 39.9091 32.9842 37.3294 33.0824C34.7514 33.182 31.4451 33.0824 31.4451 33.0824L31.4451 19.4304L31.4451 19.4304ZM47.2794 53.2478C45.6596 54.1408 42.4196 54.934 39.2799 55.1648C36.1391 55.3966 31.4451 55.2974 31.4451 55.2974L31.4451 40.1234C31.4451 40.1234 35.9411 39.8926 39.4455 40.1234C42.9493 40.3558 45.8913 41.2476 47.2129 41.9098C48.5351 42.5704 50.8499 44.0246 50.8499 47.4963C50.8499 50.9667 48.8982 52.3554 47.2794 53.2478L47.2794 53.2478Z" id="SVGRepo_iconCarrier" fill="#FFBB00" fill-rule="evenodd" stroke="none" clip-path="url(#clip_2)" transform="translate(189 52)" />
    </g>
  </g>
</svg>